<?xml version="1.0" encoding="utf-8"?>
<!-- Generator: Adobe Illustrator 24.2.3, SVG Export Plug-In . SVG Version: 6.00 Build 0)  -->
<svg version="1.1" id="Layer_1" xmlns="http://www.w3.org/2000/svg" xmlns:xlink="http://www.w3.org/1999/xlink" x="0px" y="0px"
	 viewBox="0 0 200 200" style="enable-background:new 0 0 200 200;" xml:space="preserve">
<g>
	<polygon style="fill:#FFFFFF;" points="38.5,181.5 38.5,51.7 71.7,18.5 161.5,18.5 161.5,181.5 	"/>
	<path d="M158.5,21.5v157h-117V53L73,21.5H158.5 M164.5,15.5h-94l-35,35v134h129V15.5L164.5,15.5z"/>
</g>
<polyline style="fill:none;stroke:#000000;stroke-width:6;stroke-linecap:square;stroke-miterlimit:10;" points="73,22 73,54 41,54 
	"/>
<g>
	<path d="M64.2,70.7h72.2l0.1,24.2h-3.5c-1.1-8.7-4.4-14.5-9.7-17.6c-3-1.7-7.5-2.6-13.5-2.8v63.2c0,4.4,0.8,7.3,2.3,8.8
		s4.8,2.2,9.6,2.2v3H79.1v-3c4.7,0,7.8-0.7,9.3-2.2c1.5-1.5,2.3-4.4,2.3-8.8V74.6c-5.9,0.2-10.4,1.1-13.5,2.8c-5.7,3.1-9,9-9.7,17.6
		h-3.5L64.2,70.7z"/>
</g>
</svg>
